<svg width="32" height="32" viewBox="0 0 32 32" fill="none" xmlns="http://www.w3.org/2000/svg">
<path fill-rule="evenodd" clip-rule="evenodd" d="M22.28 13.4295C22.28 14.0954 22.8133 14.6282 23.48 14.6282C24.1467 14.6282 24.6933 14.0954 24.6933 13.4295C24.6933 12.7636 24.1467 12.2175 23.48 12.2175C22.8133 12.2175 22.28 12.7636 22.28 13.4295ZM19.6933 21.4739C18.7467 22.4195 17.44 23.0055 16 23.0055C14.6 23.0055 13.2933 22.4595 12.2933 21.4739C11.3067 20.475 10.76 19.1698 10.76 17.7714C10.7467 16.3862 11.2933 15.081 12.28 14.0821C13.28 13.0832 14.6 12.5372 16 12.5372C17.4 12.5372 18.72 13.0832 19.7067 14.0688C20.6933 15.0677 21.24 16.3862 21.24 17.7714C21.2267 19.2231 20.64 20.5283 19.6933 21.4739ZM16 14.535C15.1333 14.535 14.32 14.8679 13.6933 15.4939C13.08 16.1065 12.7467 16.919 12.76 17.758V17.7714C12.76 18.6371 13.0933 19.4495 13.7067 20.0621C14.32 20.6748 15.1333 21.0078 16 21.0078C17.7867 21.0078 19.2267 19.556 19.24 17.7714C19.24 16.9057 18.9067 16.0932 18.2933 15.4806C17.68 14.8679 16.8667 14.535 16 14.535Z" fill="#585CC6"/>
<path opacity="0.4" d="M23.2534 8.31521L23.1201 8.0222C22.7601 7.26304 22.3467 6.38402 22.0934 5.87791C21.4801 4.67925 20.4267 4.01332 19.1334 4H12.8534C11.5601 4.01332 10.5201 4.67925 9.90675 5.87791C9.64008 6.41066 9.18675 7.36959 8.81342 8.15538L8.73342 8.31521C8.69342 8.42175 8.58675 8.47503 8.48008 8.47503C5.26675 8.47503 2.66675 11.0855 2.66675 14.2819V22.1931C2.66675 25.3896 5.26675 28 8.48008 28H23.5201C26.7201 28 29.3334 25.3896 29.3334 22.1931V14.2819C29.3334 11.0855 26.7201 8.47503 23.5201 8.47503C23.4001 8.47503 23.3067 8.40844 23.2534 8.31521Z" fill="#585CC6"/>
</svg>
