<svg width="184" height="24" viewBox="0 0 184 24" fill="none" xmlns="http://www.w3.org/2000/svg">
<path d="M12.0144 4.00835C14.6233 4.00835 14.9322 4.01979 15.9583 4.06556C16.9118 4.10752 17.4267 4.26771 17.77 4.40121C18.2239 4.57666 18.5519 4.79026 18.8914 5.12972C19.2347 5.473 19.4444 5.79721 19.6199 6.2511C19.7534 6.59438 19.9136 7.11311 19.9555 8.06285C20.0013 9.09268 20.0128 9.40163 20.0128 12.0067C20.0128 14.6157 20.0013 14.9246 19.9555 15.9506C19.9136 16.9042 19.7534 17.4191 19.6199 17.7624C19.4444 18.2163 19.2308 18.5443 18.8914 18.8837C18.5481 19.227 18.2239 19.4368 17.77 19.6123C17.4267 19.7458 16.908 19.906 15.9583 19.9479C14.9284 19.9937 14.6195 20.0051 12.0144 20.0051C9.40545 20.0051 9.0965 19.9937 8.07048 19.9479C7.11693 19.906 6.60201 19.7458 6.25873 19.6123C5.80484 19.4368 5.47682 19.2232 5.13735 18.8837C4.79407 18.5405 4.58429 18.2163 4.40884 17.7624C4.27534 17.4191 4.11515 16.9004 4.07319 15.9506C4.02742 14.9208 4.01598 14.6118 4.01598 12.0067C4.01598 9.39782 4.02742 9.08887 4.07319 8.06285C4.11515 7.1093 4.27534 6.59438 4.40884 6.2511C4.58429 5.79721 4.79789 5.46919 5.13735 5.12972C5.48063 4.78645 5.80484 4.57666 6.25873 4.40121C6.60201 4.26771 7.12074 4.10752 8.07048 4.06556C9.0965 4.01979 9.40545 4.00835 12.0144 4.00835ZM12.0144 2.25C9.36349 2.25 9.03166 2.26144 7.99038 2.30721C6.95291 2.35298 6.23966 2.52081 5.62176 2.7611C4.97716 3.01284 4.43173 3.34468 3.89011 3.89011C3.34468 4.43172 3.01284 4.97716 2.7611 5.61794C2.52081 6.23966 2.35298 6.9491 2.30721 7.98656C2.26144 9.03165 2.25 9.36349 2.25 12.0144C2.25 14.6652 2.26144 14.9971 2.30721 16.0383C2.35298 17.0758 2.52081 17.7891 2.7611 18.407C3.01284 19.0516 3.34468 19.597 3.89011 20.1386C4.43173 20.6802 4.97716 21.0159 5.61794 21.2638C6.23966 21.5041 6.9491 21.6719 7.98656 21.7177C9.02784 21.7635 9.35968 21.7749 12.0105 21.7749C14.6614 21.7749 14.9933 21.7635 16.0345 21.7177C17.072 21.6719 17.7853 21.5041 18.4032 21.2638C19.0439 21.0159 19.5894 20.6802 20.131 20.1386C20.6726 19.597 21.0083 19.0516 21.2562 18.4108C21.4965 17.7891 21.6643 17.0796 21.7101 16.0422C21.7558 15.0009 21.7673 14.669 21.7673 12.0182C21.7673 9.36731 21.7558 9.03547 21.7101 7.99419C21.6643 6.95673 21.4965 6.24347 21.2562 5.62557C21.0159 4.97716 20.6841 4.43172 20.1386 3.89011C19.597 3.34849 19.0516 3.01284 18.4108 2.76492C17.7891 2.52462 17.0796 2.3568 16.0422 2.31103C14.9971 2.26144 14.6652 2.25 12.0144 2.25Z" fill="#797DDF"/>
<path d="M12.0157 6.99866C9.24657 6.99866 7 9.24522 7 12.0143C7 14.7834 9.24657 17.03 12.0157 17.03C14.7848 17.03 17.0314 14.7834 17.0314 12.0143C17.0314 9.24522 14.7848 6.99866 12.0157 6.99866ZM12.0157 15.2679C10.2192 15.2679 8.76216 13.8108 8.76216 12.0143C8.76216 10.2178 10.2192 8.76082 12.0157 8.76082C13.8122 8.76082 15.2692 10.2178 15.2692 12.0143C15.2692 13.8108 13.8122 15.2679 12.0157 15.2679Z" fill="#797DDF"/>
<path d="M18.3991 6.8006C18.3991 7.44902 17.8727 7.97156 17.2281 7.97156C16.5797 7.97156 16.0571 7.4452 16.0571 6.8006C16.0571 6.15219 16.5835 5.62964 17.2281 5.62964C17.8727 5.62964 18.3991 6.156 18.3991 6.8006Z" fill="#797DDF"/>
<path d="M61.75 12.0596C61.75 6.6419 57.3848 2.25 52 2.25C46.6152 2.25 42.25 6.6419 42.25 12.0596C42.25 16.9558 45.8154 21.0141 50.4766 21.75V14.8952H48.001V12.0596H50.4766V9.89841C50.4766 7.43988 51.9322 6.08187 54.1593 6.08187C55.2257 6.08187 56.3418 6.27346 56.3418 6.27346V8.68754H55.1124C53.9013 8.68754 53.5234 9.44376 53.5234 10.2203V12.0596H56.2275L55.7953 14.8952H53.5234V21.75C58.1846 21.0141 61.75 16.9558 61.75 12.0596Z" fill="#797DDF"/>
<path d="M88.1064 21C96.029 21 100.363 14.0741 100.363 8.0699C100.363 7.8752 100.359 7.67616 100.351 7.48146C101.194 6.83819 101.922 6.04141 102.5 5.12857C101.715 5.49714 100.881 5.73785 100.027 5.84248C100.926 5.27405 101.599 4.38106 101.922 3.32906C101.076 3.85777 100.151 4.23073 99.1868 4.43196C98.537 3.70363 97.6779 3.22139 96.7422 3.0598C95.8066 2.89821 94.8465 3.06626 94.0105 3.53798C93.1745 4.00969 92.5091 4.7588 92.1171 5.66948C91.7252 6.58016 91.6285 7.60169 91.8421 8.57613C90.1297 8.48548 88.4544 8.01622 86.925 7.19877C85.3955 6.38131 84.046 5.23392 82.9638 3.83097C82.4138 4.83129 82.2455 6.01501 82.4932 7.14153C82.7408 8.26805 83.3857 9.25286 84.2969 9.89579C83.6128 9.87288 82.9437 9.6786 82.3449 9.32899V9.38523C82.3443 10.435 82.6883 11.4526 83.3185 12.265C83.9487 13.0775 84.8262 13.6346 85.8017 13.8418C85.168 14.0247 84.503 14.0513 83.858 13.9197C84.1333 14.8225 84.6689 15.6121 85.39 16.1783C86.1112 16.7446 86.982 17.0592 87.8808 17.0782C86.3549 18.3427 84.4699 19.0285 82.5295 19.0253C82.1854 19.0247 81.8416 19.0025 81.5 18.9586C83.4712 20.2927 85.7643 21.0013 88.1064 21Z" fill="#797DDF"/>
<path fill-rule="evenodd" clip-rule="evenodd" d="M141.75 12C141.75 17.3848 137.385 21.75 132 21.75C126.615 21.75 122.25 17.3848 122.25 12C122.25 6.61522 126.615 2.25 132 2.25C137.385 2.25 141.75 6.61522 141.75 12ZM137.075 10.5744C137.862 10.5744 138.5 11.213 138.5 11.9998C138.5 12.5814 138.147 13.0831 137.679 13.3112C137.702 13.4481 137.714 13.5849 137.714 13.7331C137.714 15.9226 135.171 17.6902 132.023 17.6902C128.876 17.6902 126.333 15.9226 126.333 13.7331C126.333 13.5849 126.344 13.4367 126.367 13.2998C125.865 13.0717 125.523 12.5814 125.523 11.9998C125.523 11.213 126.162 10.5744 126.949 10.5744C127.325 10.5744 127.678 10.734 127.929 10.9735C128.91 10.2551 130.267 9.81034 131.784 9.76473L132.502 6.36648C132.525 6.29806 132.559 6.24104 132.616 6.20683C132.673 6.17262 132.742 6.16122 132.81 6.17262L135.171 6.67437C135.33 6.33227 135.672 6.1042 136.071 6.1042C136.63 6.1042 137.086 6.56034 137.086 7.11911C137.086 7.67788 136.63 8.13402 136.071 8.13402C135.524 8.13402 135.079 7.70069 135.057 7.16473L132.947 6.71999L132.297 9.76473C133.779 9.82174 135.125 10.2779 136.094 10.9735C136.345 10.7226 136.687 10.5744 137.075 10.5744ZM129.765 11.9998C129.207 11.9998 128.75 12.456 128.75 13.0147C128.75 13.5735 129.207 14.0296 129.765 14.0296C130.324 14.0296 130.78 13.5735 130.78 13.0147C130.78 12.456 130.324 11.9998 129.765 11.9998ZM132.012 16.4358C132.4 16.4358 133.722 16.3902 134.418 15.6946C134.521 15.5919 134.521 15.4323 134.441 15.3182C134.338 15.2156 134.167 15.2156 134.064 15.3182C133.62 15.7516 132.696 15.9112 132.023 15.9112C131.35 15.9112 130.415 15.7516 129.982 15.3182C129.879 15.2156 129.708 15.2156 129.606 15.3182C129.503 15.4209 129.503 15.5919 129.606 15.6946C130.29 16.3788 131.624 16.4358 132.012 16.4358ZM133.221 13.0147C133.221 13.5735 133.677 14.0296 134.236 14.0296C134.794 14.0296 135.25 13.5735 135.25 13.0147C135.25 12.456 134.794 11.9998 134.236 11.9998C133.677 11.9998 133.221 12.456 133.221 13.0147Z" fill="#797DDF"/>
<path fill-rule="evenodd" clip-rule="evenodd" d="M181.75 12C181.75 17.3848 177.385 21.75 172 21.75C166.615 21.75 162.25 17.3848 162.25 12C162.25 6.61522 166.615 2.25 172 2.25C177.385 2.25 181.75 6.61522 181.75 12ZM172.348 9.44812C171.4 9.84257 169.505 10.659 166.662 11.8973C166.201 12.0809 165.959 12.2604 165.937 12.436C165.9 12.7327 166.271 12.8495 166.777 13.0087C166.846 13.0303 166.917 13.0527 166.991 13.0765C167.488 13.2383 168.158 13.4276 168.506 13.4351C168.822 13.442 169.174 13.3118 169.563 13.0446C172.219 11.2519 173.59 10.3458 173.676 10.3263C173.737 10.3125 173.821 10.2952 173.878 10.3459C173.935 10.3965 173.929 10.4925 173.923 10.5182C173.887 10.6752 172.428 12.0312 171.673 12.7329C171.438 12.9517 171.271 13.1069 171.237 13.1423C171.16 13.2217 171.082 13.2968 171.008 13.369C170.545 13.8148 170.198 14.1492 171.027 14.6951C171.425 14.9575 171.744 15.1745 172.061 15.3909C172.408 15.6273 172.755 15.8631 173.203 16.1567C173.317 16.2315 173.426 16.3092 173.532 16.3849C173.936 16.6729 174.299 16.9316 174.747 16.8904C175.008 16.8664 175.277 16.6214 175.414 15.8908C175.737 14.164 176.371 10.4227 176.518 8.88103C176.531 8.74596 176.515 8.57309 176.502 8.49721C176.489 8.42133 176.462 8.31321 176.363 8.23317C176.246 8.13838 176.066 8.11839 175.985 8.11981C175.619 8.12627 175.056 8.32191 172.348 9.44812Z" fill="#797DDF"/>
</svg>
