<svg width="24" height="24" viewBox="0 0 24 24" fill="none" xmlns="http://www.w3.org/2000/svg">
<path d="M12.0144 4.00835C14.6233 4.00835 14.9322 4.01979 15.9583 4.06556C16.9118 4.10752 17.4267 4.26771 17.77 4.40121C18.2239 4.57666 18.5519 4.79026 18.8914 5.12972C19.2347 5.473 19.4444 5.79721 19.6199 6.2511C19.7534 6.59438 19.9136 7.11311 19.9555 8.06285C20.0013 9.09268 20.0128 9.40163 20.0128 12.0067C20.0128 14.6157 20.0013 14.9246 19.9555 15.9506C19.9136 16.9042 19.7534 17.4191 19.6199 17.7624C19.4444 18.2163 19.2308 18.5443 18.8914 18.8837C18.5481 19.227 18.2239 19.4368 17.77 19.6123C17.4267 19.7458 16.908 19.906 15.9583 19.9479C14.9284 19.9937 14.6195 20.0051 12.0144 20.0051C9.40545 20.0051 9.0965 19.9937 8.07048 19.9479C7.11693 19.906 6.60201 19.7458 6.25873 19.6123C5.80484 19.4368 5.47682 19.2232 5.13735 18.8837C4.79407 18.5405 4.58429 18.2163 4.40884 17.7624C4.27534 17.4191 4.11515 16.9004 4.07319 15.9506C4.02742 14.9208 4.01598 14.6118 4.01598 12.0067C4.01598 9.39782 4.02742 9.08887 4.07319 8.06285C4.11515 7.1093 4.27534 6.59438 4.40884 6.2511C4.58429 5.79721 4.79789 5.46919 5.13735 5.12972C5.48063 4.78645 5.80484 4.57666 6.25873 4.40121C6.60201 4.26771 7.12074 4.10752 8.07048 4.06556C9.0965 4.01979 9.40545 4.00835 12.0144 4.00835ZM12.0144 2.25C9.36349 2.25 9.03166 2.26144 7.99038 2.30721C6.95291 2.35298 6.23966 2.52081 5.62176 2.7611C4.97716 3.01284 4.43173 3.34468 3.89011 3.89011C3.34468 4.43172 3.01284 4.97716 2.7611 5.61794C2.52081 6.23966 2.35298 6.9491 2.30721 7.98656C2.26144 9.03165 2.25 9.36349 2.25 12.0144C2.25 14.6652 2.26144 14.9971 2.30721 16.0383C2.35298 17.0758 2.52081 17.7891 2.7611 18.407C3.01284 19.0516 3.34468 19.597 3.89011 20.1386C4.43173 20.6802 4.97716 21.0159 5.61794 21.2638C6.23966 21.5041 6.9491 21.6719 7.98656 21.7177C9.02784 21.7635 9.35968 21.7749 12.0105 21.7749C14.6614 21.7749 14.9933 21.7635 16.0345 21.7177C17.072 21.6719 17.7853 21.5041 18.4032 21.2638C19.0439 21.0159 19.5894 20.6802 20.131 20.1386C20.6726 19.597 21.0083 19.0516 21.2562 18.4108C21.4965 17.7891 21.6643 17.0796 21.7101 16.0422C21.7558 15.0009 21.7673 14.669 21.7673 12.0182C21.7673 9.36731 21.7558 9.03547 21.7101 7.99419C21.6643 6.95673 21.4965 6.24347 21.2562 5.62557C21.0159 4.97716 20.6841 4.43172 20.1386 3.89011C19.597 3.34849 19.0516 3.01284 18.4108 2.76492C17.7891 2.52462 17.0796 2.3568 16.0422 2.31103C14.9971 2.26144 14.6652 2.25 12.0144 2.25Z" fill="#585CC6"/>
<path d="M12.0157 6.99866C9.24657 6.99866 7 9.24522 7 12.0143C7 14.7834 9.24657 17.03 12.0157 17.03C14.7848 17.03 17.0314 14.7834 17.0314 12.0143C17.0314 9.24522 14.7848 6.99866 12.0157 6.99866ZM12.0157 15.2679C10.2192 15.2679 8.76216 13.8108 8.76216 12.0143C8.76216 10.2178 10.2192 8.76082 12.0157 8.76082C13.8122 8.76082 15.2692 10.2178 15.2692 12.0143C15.2692 13.8108 13.8122 15.2679 12.0157 15.2679Z" fill="#585CC6"/>
<path d="M18.3991 6.8006C18.3991 7.44902 17.8727 7.97156 17.2281 7.97156C16.5797 7.97156 16.0571 7.4452 16.0571 6.8006C16.0571 6.15219 16.5835 5.62964 17.2281 5.62964C17.8727 5.62964 18.3991 6.156 18.3991 6.8006Z" fill="#585CC6"/>
</svg>
