<svg width="17" height="18" viewBox="0 0 17 18" fill="none" xmlns="http://www.w3.org/2000/svg">
<path d="M8.91762 4.2107C10.0697 4.2107 11.0037 3.2681 11.0037 2.10535C11.0037 0.942598 10.0697 0 8.91762 0C7.76551 0 6.83154 0.942598 6.83154 2.10535C6.83154 3.2681 7.76551 4.2107 8.91762 4.2107Z" fill="#585CC6"/>
<path d="M8.91762 18C9.60881 18 10.1691 17.4345 10.1691 16.7369C10.1691 16.0393 9.60881 15.4739 8.91762 15.4739C8.22643 15.4739 7.66611 16.0393 7.66611 16.7369C7.66611 17.4345 8.22643 18 8.91762 18Z" fill="#585CC6"/>
<path d="M3.79177 6.14254C4.82874 6.14254 5.66937 5.29414 5.66937 4.24759C5.66937 3.20104 4.82874 2.35264 3.79177 2.35264C2.75479 2.35264 1.91416 3.20104 1.91416 4.24759C1.91416 5.29414 2.75479 6.14254 3.79177 6.14254Z" fill="#585CC6"/>
<path d="M14.0435 15.646C14.6195 15.646 15.0865 15.1747 15.0865 14.5933C15.0865 14.0119 14.6195 13.5406 14.0435 13.5406C13.4674 13.5406 13.0004 14.0119 13.0004 14.5933C13.0004 15.1747 13.4674 15.646 14.0435 15.646Z" fill="#585CC6"/>
<path d="M1.66846 11.1054C2.58992 11.1054 3.33692 10.3515 3.33692 9.42148C3.33692 8.4915 2.58992 7.73761 1.66846 7.73761C0.746994 7.73761 0 8.4915 0 9.42148C0 10.3515 0.746994 11.1054 1.66846 11.1054Z" fill="#585CC6"/>
<path d="M16.1661 10.2624C16.6267 10.2624 17 9.8856 17 9.4208C17 8.956 16.6267 8.5792 16.1661 8.5792C15.7056 8.5792 15.3322 8.956 15.3322 9.4208C15.3322 9.8856 15.7056 10.2624 16.1661 10.2624Z" fill="#585CC6"/>
<path d="M2.75956 13.5529C2.18896 14.1288 2.18896 15.0606 2.75956 15.6364C3.32947 16.2123 4.25406 16.2123 4.82398 15.6364C5.39457 15.0606 5.39457 14.1288 4.82398 13.5529C4.25406 12.9764 3.33015 12.9709 2.75956 13.5529Z" fill="#585CC6"/>
<path d="M14.0428 4.87879C14.3882 4.87879 14.6682 4.59619 14.6682 4.24759C14.6682 3.89899 14.3882 3.61639 14.0428 3.61639C13.6974 3.61639 13.4174 3.89899 13.4174 4.24759C13.4174 4.59619 13.6974 4.87879 14.0428 4.87879Z" fill="#585CC6"/>
</svg>
