<svg width="16" height="19" viewBox="0 0 16 19" fill="none" xmlns="http://www.w3.org/2000/svg">
<path fill-rule="evenodd" clip-rule="evenodd" d="M12.2477 1.14369L6.67744 2.6417L6.98069 3.77034L11.1897 2.63714L7.38427 9.22428C5.26119 8.32653 2.75939 9.07003 1.59743 11.0825C0.337412 13.265 1.139 16.0833 3.35765 17.3642C5.57629 18.6451 8.4203 17.9323 9.68031 15.7499C10.8419 13.738 10.2323 11.2004 8.39434 9.81026L12.1998 3.22084L13.3216 7.42986L14.4502 7.12889L12.9636 1.55638L12.8228 1L12.2477 1.14369ZM7.33411 10.4783C6.7017 10.1132 6.00964 9.96143 5.3436 9.99951C4.23353 10.063 3.19261 10.6529 2.6075 11.6662C1.67133 13.2878 2.25493 15.3804 3.94135 16.3541C5.62775 17.3277 7.73179 16.7877 8.66795 15.1662C9.60413 13.5446 9.02051 11.4519 7.33411 10.4783Z" fill="#585CC6" stroke="#585CC6"/>
</svg>
