<svg width="32" height="32" viewBox="0 0 32 32" fill="none" xmlns="http://www.w3.org/2000/svg">
<g clip-path="url(#clip0_33_463)">
<path d="M30.7733 20L29.3333 11.88C29.2533 11.1466 28.68 10.5466 27.5867 9.93329C27.3743 9.60873 27.0937 9.33441 26.7643 9.12946C26.435 8.92451 26.065 8.79386 25.68 8.74663C25.3237 8.15636 24.7574 7.72257 24.0948 7.53218C23.4321 7.34178 22.722 7.40886 22.1067 7.71996C21.8264 7.34426 21.452 7.04907 21.0213 6.86415C20.5906 6.67923 20.1188 6.6111 19.6533 6.66663C19.413 6.24669 19.0628 5.90006 18.6405 5.6639C18.2182 5.42773 17.7396 5.31093 17.2559 5.326C16.7723 5.34107 16.3019 5.48745 15.8951 5.74945C15.4883 6.01145 15.1604 6.3792 14.9467 6.81329C14.7402 6.73823 14.5252 6.68897 14.3067 6.66663C14.0732 6.25939 13.7363 5.92102 13.3301 5.6857C12.9239 5.45038 12.4628 5.32646 11.9933 5.32646C11.5239 5.32646 11.0628 5.45038 10.6566 5.6857C10.2504 5.92102 9.91352 6.25939 9.68 6.66663C9.27333 6.61246 8.85964 6.65286 8.47112 6.78467C8.08261 6.91649 7.72975 7.13617 7.44 7.42663C7.18853 7.35604 6.92771 7.32457 6.66667 7.33329C5.95942 7.33329 5.28115 7.61425 4.78105 8.11434C4.28095 8.61444 4 9.29272 4 9.99996C4 9.99996 4 10.08 4 10.1333C3.65892 10.2925 3.36033 10.5301 3.1286 10.8267C2.89688 11.1233 2.73859 11.4705 2.66667 11.84L1.22667 20C0.869792 20.2024 0.570084 20.4921 0.355561 20.8419C0.141038 21.1916 0.0187059 21.5901 0 22C0.0142708 22.3138 0.0968231 22.6207 0.241901 22.8994C0.386978 23.178 0.591089 23.4216 0.84 23.6133C0.894413 23.6839 0.962419 23.7428 1.04 23.7866C3.46667 25.68 9.76 26.6666 16 26.6666C22.24 26.6666 28.5333 25.68 30.96 23.7733C31.0376 23.7295 31.1056 23.6705 31.16 23.6C31.4072 23.4097 31.6104 23.1682 31.7554 22.892C31.9004 22.6158 31.9838 22.3115 32 22C31.9813 21.5901 31.859 21.1916 31.6444 20.8419C31.4299 20.4921 31.1302 20.2024 30.7733 20ZM5.04 11.08C5.16603 11.0035 5.26318 10.8875 5.31625 10.75C5.36933 10.6125 5.37533 10.4612 5.33333 10.32C5.32049 10.2137 5.32049 10.1062 5.33333 9.99996C5.33373 9.76741 5.39495 9.539 5.51091 9.33742C5.62687 9.13584 5.79353 8.96809 5.99436 8.85083C6.19518 8.73357 6.42319 8.67087 6.65573 8.66897C6.88828 8.66706 7.11728 8.72601 7.32 8.83996C7.46944 8.92448 7.64573 8.94808 7.81214 8.90586C7.97856 8.86363 8.12226 8.75884 8.21333 8.61329C8.38024 8.35299 8.63242 8.15878 8.92673 8.06392C9.22104 7.96906 9.53917 7.97945 9.82667 8.09329C9.9107 8.12009 9.99921 8.12994 10.0871 8.12229C10.1749 8.11463 10.2604 8.08962 10.3385 8.04869C10.4167 8.00777 10.4859 7.95175 10.5422 7.88387C10.5986 7.816 10.6408 7.73763 10.6667 7.65329C10.744 7.38287 10.9049 7.14385 11.1264 6.97041C11.3478 6.79696 11.6184 6.69798 11.8995 6.68763C12.1806 6.67727 12.4577 6.75607 12.6913 6.91275C12.9249 7.06943 13.1029 7.29597 13.2 7.55996C13.2636 7.69306 13.3639 7.8052 13.4891 7.88316C13.6143 7.96112 13.7592 8.00165 13.9067 7.99996C14.2527 7.99428 14.5874 8.12338 14.84 8.35996C14.9308 8.45985 15.0498 8.52983 15.1812 8.56065C15.3126 8.59146 15.4503 8.58165 15.576 8.53251C15.7017 8.48338 15.8096 8.39723 15.8853 8.28548C15.961 8.17372 16.001 8.04161 16 7.90663C15.9664 7.55301 16.0747 7.20052 16.301 6.92672C16.5273 6.65292 16.853 6.48022 17.2067 6.44663C17.5603 6.41303 17.9128 6.52129 18.1866 6.74759C18.4604 6.97388 18.6331 7.29967 18.6667 7.65329C18.6917 7.74394 18.7357 7.82826 18.7957 7.90071C18.8556 7.97316 18.9303 8.0321 19.0146 8.07366C19.099 8.11521 19.1912 8.13845 19.2852 8.14183C19.3792 8.14522 19.4729 8.12867 19.56 8.09329C19.7245 8.02906 19.9001 7.99813 20.0766 8.0023C20.2531 8.00648 20.4271 8.04568 20.5883 8.11762C20.7496 8.18956 20.8949 8.29282 21.016 8.4214C21.137 8.54998 21.2313 8.70132 21.2933 8.86663C21.3319 8.975 21.3978 9.07156 21.4847 9.14692C21.5716 9.22228 21.6765 9.27388 21.7892 9.29669C21.902 9.31951 22.0187 9.31277 22.1281 9.27713C22.2374 9.24149 22.3357 9.17816 22.4133 9.09329C22.5699 8.92706 22.7665 8.80381 22.9844 8.73537C23.2022 8.66693 23.434 8.65559 23.6575 8.70243C23.881 8.74927 24.0887 8.85272 24.2607 9.00288C24.4328 9.15303 24.5634 9.34485 24.64 9.55996C24.7026 9.691 24.8008 9.80177 24.9234 9.87959C25.0461 9.9574 25.1881 9.99912 25.3333 9.99996C25.5791 9.99572 25.8212 10.0595 26.0329 10.1842C26.2447 10.3089 26.4179 10.4897 26.5333 10.7066C26.6031 10.8302 26.7106 10.9283 26.84 10.9866C27.72 11.4133 28.04 11.7866 28.04 12C28.04 12.9066 23.8 14.6666 16.04 14.6666C8.28 14.6666 4 12.9066 4 12C4 11.8133 4.26667 11.4666 5.04 11.08Z" fill="#585CC6"/>
<path d="M9.99992 11.9999C10.1767 11.9999 10.3463 11.9297 10.4713 11.8047C10.5963 11.6796 10.6666 11.5101 10.6666 11.3333C10.6666 11.1564 10.7368 10.9869 10.8618 10.8618C10.9869 10.7368 11.1564 10.6666 11.3333 10.6666C11.5101 10.6666 11.6796 10.5963 11.8047 10.4713C11.9297 10.3463 11.9999 10.1767 11.9999 9.99992C11.9999 9.82311 11.9297 9.65354 11.8047 9.52851C11.6796 9.40349 11.5101 9.33325 11.3333 9.33325C10.8028 9.33325 10.2941 9.54397 9.91904 9.91904C9.54397 10.2941 9.33325 10.8028 9.33325 11.3333C9.33325 11.5101 9.40349 11.6796 9.52851 11.8047C9.65354 11.9297 9.82311 11.9999 9.99992 11.9999ZM19.3333 11.9999C19.5101 11.9999 19.6796 11.9297 19.8047 11.8047C19.9297 11.6796 19.9999 11.5101 19.9999 11.3333C19.9999 11.1564 20.0702 10.9869 20.1952 10.8618C20.3202 10.7368 20.4898 10.6666 20.6666 10.6666C20.8434 10.6666 21.013 10.5963 21.138 10.4713C21.263 10.3463 21.3333 10.1767 21.3333 9.99992C21.3333 9.82311 21.263 9.65354 21.138 9.52851C21.013 9.40349 20.8434 9.33325 20.6666 9.33325C20.1362 9.33325 19.6274 9.54397 19.2524 9.91904C18.8773 10.2941 18.6666 10.8028 18.6666 11.3333C18.6666 11.5101 18.7368 11.6796 18.8618 11.8047C18.9869 11.9297 19.1564 11.9999 19.3333 11.9999ZM23.3333 11.9999C23.5101 11.9999 23.6796 12.0702 23.8047 12.1952C23.9297 12.3202 23.9999 12.4898 23.9999 12.6666C23.9999 12.8434 24.0702 13.013 24.1952 13.138C24.3202 13.263 24.4898 13.3333 24.6666 13.3333C24.8434 13.3333 25.013 13.263 25.138 13.138C25.263 13.013 25.3333 12.8434 25.3333 12.6666C25.3333 12.1362 25.1225 11.6274 24.7475 11.2524C24.3724 10.8773 23.8637 10.6666 23.3333 10.6666C23.1564 10.6666 22.9869 10.7368 22.8618 10.8618C22.7368 10.9869 22.6666 11.1564 22.6666 11.3333C22.6666 11.5101 22.7368 11.6796 22.8618 11.8047C22.9869 11.9297 23.1564 11.9999 23.3333 11.9999ZM13.9999 13.3333C14.1767 13.3333 14.3463 13.263 14.4713 13.138C14.5963 13.013 14.6666 12.8434 14.6666 12.6666C14.6666 12.4898 14.7368 12.3202 14.8618 12.1952C14.9869 12.0702 15.1564 11.9999 15.3333 11.9999C15.5101 11.9999 15.6796 11.9297 15.8047 11.8047C15.9297 11.6796 15.9999 11.5101 15.9999 11.3333C15.9999 11.1564 15.9297 10.9869 15.8047 10.8618C15.6796 10.7368 15.5101 10.6666 15.3333 10.6666C14.8028 10.6666 14.2941 10.8773 13.919 11.2524C13.544 11.6274 13.3333 12.1362 13.3333 12.6666C13.3333 12.8434 13.4035 13.013 13.5285 13.138C13.6535 13.263 13.8231 13.3333 13.9999 13.3333Z" fill="#585CC6"/>
</g>
<defs>
<clipPath id="clip0_33_463">
<rect width="32" height="32" fill="white"/>
</clipPath>
</defs>
</svg>
