<svg width="24" height="24" viewBox="0 0 24 24" fill="none" xmlns="http://www.w3.org/2000/svg">
<path fill-rule="evenodd" clip-rule="evenodd" d="M21.75 12C21.75 17.3848 17.3848 21.75 12 21.75C6.61522 21.75 2.25 17.3848 2.25 12C2.25 6.61522 6.61522 2.25 12 2.25C17.3848 2.25 21.75 6.61522 21.75 12ZM17.075 10.5744C17.8618 10.5744 18.5004 11.213 18.5004 11.9998C18.5004 12.5814 18.1469 13.0831 17.6794 13.3112C17.7022 13.4481 17.7136 13.5849 17.7136 13.7331C17.7136 15.9226 15.1706 17.6902 12.0232 17.6902C8.87585 17.6902 6.33287 15.9226 6.33287 13.7331C6.33287 13.5849 6.34427 13.4367 6.36708 13.2998C5.86533 13.0717 5.52322 12.5814 5.52322 11.9998C5.52322 11.213 6.16182 10.5744 6.94866 10.5744C7.32497 10.5744 7.67848 10.734 7.92936 10.9735C8.91006 10.2551 10.2671 9.81034 11.7837 9.76473L12.5022 6.36648C12.525 6.29806 12.5592 6.24104 12.6162 6.20683C12.6732 6.17262 12.7416 6.16122 12.8101 6.17262L15.1706 6.67437C15.3302 6.33227 15.6723 6.1042 16.0715 6.1042C16.6302 6.1042 17.0864 6.56034 17.0864 7.11911C17.0864 7.67788 16.6302 8.13402 16.0715 8.13402C15.5241 8.13402 15.0794 7.70069 15.0566 7.16473L12.9469 6.71999L12.2969 9.76473C13.7794 9.82174 15.125 10.2779 16.0943 10.9735C16.3452 10.7226 16.6873 10.5744 17.075 10.5744ZM9.76533 11.9998C9.20655 11.9998 8.75041 12.456 8.75041 13.0147C8.75041 13.5735 9.20655 14.0296 9.76533 14.0296C10.3241 14.0296 10.7802 13.5735 10.7802 13.0147C10.7802 12.456 10.3241 11.9998 9.76533 11.9998ZM12.0118 16.4358C12.3995 16.4358 13.7223 16.3902 14.418 15.6946C14.5206 15.5919 14.5206 15.4323 14.4408 15.3182C14.3381 15.2156 14.1671 15.2156 14.0644 15.3182C13.6197 15.7516 12.696 15.9112 12.0232 15.9112C11.3504 15.9112 10.4153 15.7516 9.98199 15.3182C9.87936 15.2156 9.70831 15.2156 9.60568 15.3182C9.50304 15.4209 9.50304 15.5919 9.60568 15.6946C10.2899 16.3788 11.6241 16.4358 12.0118 16.4358ZM13.2206 13.0147C13.2206 13.5735 13.6767 14.0296 14.2355 14.0296C14.7943 14.0296 15.2504 13.5735 15.2504 13.0147C15.2504 12.456 14.7943 11.9998 14.2355 11.9998C13.6767 11.9998 13.2206 12.456 13.2206 13.0147Z" fill="#585CC6"/>
</svg>
