<svg width="22" height="18" viewBox="0 0 22 18" fill="none" xmlns="http://www.w3.org/2000/svg">
<path d="M7.10639 18C15.029 18 19.3635 11.0741 19.3635 5.0699C19.3635 4.8752 19.3594 4.67616 19.3512 4.48146C20.1944 3.83819 20.9221 3.04141 21.5 2.12857C20.7147 2.49714 19.8809 2.73785 19.0272 2.84248C19.9261 2.27405 20.5992 1.38106 20.9217 0.329064C20.076 0.857774 19.1511 1.23073 18.1868 1.43196C17.537 0.703629 16.6779 0.221391 15.7422 0.0597979C14.8066 -0.101795 13.8465 0.0662586 13.0105 0.537976C12.1745 1.00969 11.5091 1.7588 11.1171 2.66948C10.7252 3.58016 10.6285 4.60169 10.8421 5.57613C9.12968 5.48548 7.45444 5.01622 5.92498 4.19877C4.39552 3.38131 3.04598 2.23392 1.96385 0.830969C1.41385 1.83129 1.24555 3.01501 1.49315 4.14153C1.74075 5.26805 2.38568 6.25286 3.29686 6.89579C2.6128 6.87288 1.94373 6.6786 1.34492 6.32899V6.38523C1.34431 7.435 1.68834 8.4526 2.31852 9.26505C2.94871 10.0775 3.82616 10.6346 4.80172 10.8418C4.16805 11.0247 3.50298 11.0513 2.85799 10.9197C3.13327 11.8225 3.66888 12.6121 4.39005 13.1783C5.11122 13.7446 5.98198 14.0592 6.8808 14.0782C5.35487 15.3427 3.4699 16.0285 1.52949 16.0253C1.18538 16.0247 0.841599 16.0025 0.5 15.9586C2.47125 17.2927 4.76434 18.0013 7.10639 18Z" fill="#585CC6"/>
</svg>
